<mxfile host="app.diagrams.net" agent="Mozilla/5.0 (Windows NT 10.0; Win64; x64) AppleWebKit/537.36 (KHTML, like Gecko) Chrome/128.0.0.0 Safari/537.36" version="24.7.14">
  <diagram name="Сторінка-1" id="CXOs0uGjs5hbOrzTGemo">
    <mxGraphModel dx="1520" dy="931" grid="1" gridSize="10" guides="1" tooltips="1" connect="1" arrows="1" fold="1" page="1" pageScale="1" pageWidth="1654" pageHeight="2336" math="0" shadow="0">
      <root>
        <mxCell id="0" />
        <mxCell id="1" parent="0" />
        <mxCell id="sl0QNsulNR3IGvjlK8Jg-1" value="" style="rounded=1;whiteSpace=wrap;html=1;" vertex="1" parent="1">
          <mxGeometry x="130" y="40" width="120" height="60" as="geometry" />
        </mxCell>
        <mxCell id="sl0QNsulNR3IGvjlK8Jg-2" value="Start" style="text;html=1;align=center;verticalAlign=middle;whiteSpace=wrap;rounded=0;" vertex="1" parent="1">
          <mxGeometry x="160" y="55" width="60" height="30" as="geometry" />
        </mxCell>
        <mxCell id="sl0QNsulNR3IGvjlK8Jg-3" value="" style="endArrow=classic;html=1;rounded=0;exitX=0.5;exitY=1;exitDx=0;exitDy=0;" edge="1" parent="1" source="sl0QNsulNR3IGvjlK8Jg-1">
          <mxGeometry width="50" height="50" relative="1" as="geometry">
            <mxPoint x="170" y="180" as="sourcePoint" />
            <mxPoint x="190" y="140" as="targetPoint" />
          </mxGeometry>
        </mxCell>
        <mxCell id="sl0QNsulNR3IGvjlK8Jg-4" value="" style="rhombus;whiteSpace=wrap;html=1;" vertex="1" parent="1">
          <mxGeometry x="130" y="140" width="120" height="80" as="geometry" />
        </mxCell>
        <mxCell id="sl0QNsulNR3IGvjlK8Jg-5" value="n&amp;lt;=1?" style="text;html=1;align=center;verticalAlign=middle;whiteSpace=wrap;rounded=0;" vertex="1" parent="1">
          <mxGeometry x="160" y="165" width="60" height="30" as="geometry" />
        </mxCell>
        <mxCell id="sl0QNsulNR3IGvjlK8Jg-6" value="" style="endArrow=none;html=1;rounded=0;exitX=1;exitY=0.5;exitDx=0;exitDy=0;" edge="1" parent="1" source="sl0QNsulNR3IGvjlK8Jg-4">
          <mxGeometry width="50" height="50" relative="1" as="geometry">
            <mxPoint x="360" y="270" as="sourcePoint" />
            <mxPoint x="320" y="180" as="targetPoint" />
          </mxGeometry>
        </mxCell>
        <mxCell id="sl0QNsulNR3IGvjlK8Jg-7" value="" style="endArrow=none;html=1;rounded=0;exitX=1;exitY=0;exitDx=0;exitDy=0;" edge="1" parent="1" source="sl0QNsulNR3IGvjlK8Jg-12">
          <mxGeometry width="50" height="50" relative="1" as="geometry">
            <mxPoint x="320" y="530" as="sourcePoint" />
            <mxPoint x="320" y="180" as="targetPoint" />
          </mxGeometry>
        </mxCell>
        <mxCell id="sl0QNsulNR3IGvjlK8Jg-8" value="" style="endArrow=none;html=1;rounded=0;exitX=1;exitY=0.5;exitDx=0;exitDy=0;entryX=1;entryY=0;entryDx=0;entryDy=0;" edge="1" parent="1" source="sl0QNsulNR3IGvjlK8Jg-10" target="sl0QNsulNR3IGvjlK8Jg-12">
          <mxGeometry width="50" height="50" relative="1" as="geometry">
            <mxPoint x="220" y="480" as="sourcePoint" />
            <mxPoint x="320" y="530" as="targetPoint" />
          </mxGeometry>
        </mxCell>
        <mxCell id="sl0QNsulNR3IGvjlK8Jg-9" value="True" style="text;html=1;align=center;verticalAlign=middle;whiteSpace=wrap;rounded=0;" vertex="1" parent="1">
          <mxGeometry x="250" y="150" width="60" height="30" as="geometry" />
        </mxCell>
        <mxCell id="sl0QNsulNR3IGvjlK8Jg-10" value="" style="rounded=1;whiteSpace=wrap;html=1;" vertex="1" parent="1">
          <mxGeometry x="130" y="555" width="120" height="60" as="geometry" />
        </mxCell>
        <mxCell id="sl0QNsulNR3IGvjlK8Jg-11" value="End" style="text;html=1;align=center;verticalAlign=middle;whiteSpace=wrap;rounded=0;" vertex="1" parent="1">
          <mxGeometry x="160" y="570" width="60" height="30" as="geometry" />
        </mxCell>
        <mxCell id="sl0QNsulNR3IGvjlK8Jg-12" value="return n" style="text;html=1;align=center;verticalAlign=middle;whiteSpace=wrap;rounded=0;" vertex="1" parent="1">
          <mxGeometry x="260" y="585" width="60" height="30" as="geometry" />
        </mxCell>
        <mxCell id="sl0QNsulNR3IGvjlK8Jg-15" value="" style="endArrow=none;html=1;rounded=0;" edge="1" parent="1">
          <mxGeometry width="50" height="50" relative="1" as="geometry">
            <mxPoint x="70" y="180" as="sourcePoint" />
            <mxPoint x="130" y="180" as="targetPoint" />
          </mxGeometry>
        </mxCell>
        <mxCell id="sl0QNsulNR3IGvjlK8Jg-17" value="" style="endArrow=none;html=1;rounded=0;" edge="1" parent="1">
          <mxGeometry width="50" height="50" relative="1" as="geometry">
            <mxPoint x="70" y="270" as="sourcePoint" />
            <mxPoint x="70" y="180" as="targetPoint" />
          </mxGeometry>
        </mxCell>
        <mxCell id="sl0QNsulNR3IGvjlK8Jg-18" value="" style="endArrow=none;html=1;rounded=0;" edge="1" parent="1">
          <mxGeometry width="50" height="50" relative="1" as="geometry">
            <mxPoint x="70" y="269.55" as="sourcePoint" />
            <mxPoint x="130" y="270" as="targetPoint" />
          </mxGeometry>
        </mxCell>
        <mxCell id="sl0QNsulNR3IGvjlK8Jg-19" value="False" style="text;html=1;align=center;verticalAlign=middle;whiteSpace=wrap;rounded=0;" vertex="1" parent="1">
          <mxGeometry x="70" y="150" width="60" height="30" as="geometry" />
        </mxCell>
        <mxCell id="sl0QNsulNR3IGvjlK8Jg-22" style="edgeStyle=orthogonalEdgeStyle;rounded=0;orthogonalLoop=1;jettySize=auto;html=1;exitX=0.5;exitY=1;exitDx=0;exitDy=0;" edge="1" parent="1" source="sl0QNsulNR3IGvjlK8Jg-20" target="sl0QNsulNR3IGvjlK8Jg-23">
          <mxGeometry relative="1" as="geometry">
            <mxPoint x="190" y="340" as="targetPoint" />
          </mxGeometry>
        </mxCell>
        <mxCell id="sl0QNsulNR3IGvjlK8Jg-20" value="" style="rounded=0;whiteSpace=wrap;html=1;" vertex="1" parent="1">
          <mxGeometry x="130" y="240" width="120" height="60" as="geometry" />
        </mxCell>
        <mxCell id="sl0QNsulNR3IGvjlK8Jg-21" value="Initialize:&lt;div&gt;&lt;span class=&quot;hljs-string&quot;&gt;prev1&lt;/span&gt; &lt;span class=&quot;hljs-string&quot;&gt;=&lt;/span&gt; &lt;span class=&quot;hljs-number&quot;&gt;0&lt;/span&gt;&lt;span class=&quot;hljs-string&quot;&gt;,&lt;/span&gt; &lt;span class=&quot;hljs-string&quot;&gt;prev2&lt;/span&gt; &lt;span class=&quot;hljs-string&quot;&gt;=&lt;/span&gt; &lt;span class=&quot;hljs-number&quot;&gt;1&lt;/span&gt;&lt;br&gt;&lt;/div&gt;" style="text;html=1;align=center;verticalAlign=middle;whiteSpace=wrap;rounded=0;" vertex="1" parent="1">
          <mxGeometry x="160" y="255" width="60" height="30" as="geometry" />
        </mxCell>
        <mxCell id="sl0QNsulNR3IGvjlK8Jg-28" style="edgeStyle=orthogonalEdgeStyle;rounded=0;orthogonalLoop=1;jettySize=auto;html=1;exitX=0.5;exitY=1;exitDx=0;exitDy=0;entryX=0.5;entryY=0;entryDx=0;entryDy=0;" edge="1" parent="1" source="sl0QNsulNR3IGvjlK8Jg-23" target="sl0QNsulNR3IGvjlK8Jg-26">
          <mxGeometry relative="1" as="geometry" />
        </mxCell>
        <mxCell id="sl0QNsulNR3IGvjlK8Jg-23" value="" style="rounded=0;whiteSpace=wrap;html=1;" vertex="1" parent="1">
          <mxGeometry x="120" y="330" width="140" height="80" as="geometry" />
        </mxCell>
        <mxCell id="sl0QNsulNR3IGvjlK8Jg-24" value="&lt;span class=&quot;hljs-string&quot;&gt;Loop: For&lt;/span&gt; &lt;span class=&quot;hljs-string&quot;&gt;i&lt;/span&gt; &lt;span class=&quot;hljs-string&quot;&gt;=&lt;/span&gt; &lt;span class=&quot;hljs-number&quot;&gt;2&lt;/span&gt; &lt;span class=&quot;hljs-string&quot;&gt;to&lt;/span&gt; &lt;span class=&quot;hljs-string&quot;&gt;n&lt;/span&gt;&lt;div&gt;&lt;span class=&quot;hljs-string&quot;&gt;&lt;span class=&quot;hljs-string&quot;&gt;result&lt;/span&gt; &lt;span class=&quot;hljs-string&quot;&gt;=&lt;/span&gt; &lt;span class=&quot;hljs-string&quot;&gt;prev1&lt;/span&gt; &lt;span class=&quot;hljs-string&quot;&gt;+&lt;/span&gt; &lt;span class=&quot;hljs-string&quot;&gt;prev2&lt;/span&gt;&lt;br&gt;&lt;/span&gt;&lt;/div&gt;&lt;div&gt;&lt;span class=&quot;hljs-string&quot;&gt;&lt;span class=&quot;hljs-string&quot;&gt;&lt;span class=&quot;hljs-string&quot;&gt;prev1&lt;/span&gt; &lt;span class=&quot;hljs-string&quot;&gt;=&lt;/span&gt; &lt;span class=&quot;hljs-string&quot;&gt;prev2,&lt;/span&gt;&lt;/span&gt;&lt;/span&gt;&lt;/div&gt;&lt;div&gt;&lt;span class=&quot;hljs-string&quot;&gt;&lt;span class=&quot;hljs-string&quot;&gt; &lt;span class=&quot;hljs-string&quot;&gt;prev2&lt;/span&gt; &lt;span class=&quot;hljs-string&quot;&gt;=&lt;/span&gt; &lt;span class=&quot;hljs-string&quot;&gt;result&lt;/span&gt;&lt;br&gt;&lt;/span&gt;&lt;/span&gt;&lt;/div&gt;" style="text;html=1;align=center;verticalAlign=middle;whiteSpace=wrap;rounded=0;" vertex="1" parent="1">
          <mxGeometry x="130" y="340" width="120" height="60" as="geometry" />
        </mxCell>
        <mxCell id="sl0QNsulNR3IGvjlK8Jg-30" style="edgeStyle=orthogonalEdgeStyle;rounded=0;orthogonalLoop=1;jettySize=auto;html=1;exitX=0.5;exitY=1;exitDx=0;exitDy=0;entryX=0.5;entryY=0;entryDx=0;entryDy=0;" edge="1" parent="1" source="sl0QNsulNR3IGvjlK8Jg-26" target="sl0QNsulNR3IGvjlK8Jg-10">
          <mxGeometry relative="1" as="geometry" />
        </mxCell>
        <mxCell id="sl0QNsulNR3IGvjlK8Jg-26" value="" style="rounded=0;whiteSpace=wrap;html=1;" vertex="1" parent="1">
          <mxGeometry x="130" y="450" width="120" height="60" as="geometry" />
        </mxCell>
        <mxCell id="sl0QNsulNR3IGvjlK8Jg-29" value="return result" style="text;html=1;align=center;verticalAlign=middle;whiteSpace=wrap;rounded=0;" vertex="1" parent="1">
          <mxGeometry x="160" y="465" width="60" height="30" as="geometry" />
        </mxCell>
        <mxCell id="sl0QNsulNR3IGvjlK8Jg-31" value="&lt;div style=&quot;background-color:#1e1f22;color:#bcbec4&quot;&gt;&lt;pre style=&quot;font-family:&#39;JetBrains Mono&#39;,monospace;font-size:9,8pt;&quot;&gt;&lt;span style=&quot;color:#56a8f5;&quot;&gt;iterationFibonacci&lt;/span&gt;(&lt;span style=&quot;color:#cf8e6d;&quot;&gt;int &lt;/span&gt;n)&lt;/pre&gt;&lt;/div&gt;" style="text;html=1;align=center;verticalAlign=middle;resizable=0;points=[];autosize=1;strokeColor=none;fillColor=none;" vertex="1" parent="1">
          <mxGeometry x="95" width="190" height="50" as="geometry" />
        </mxCell>
        <mxCell id="sl0QNsulNR3IGvjlK8Jg-41" style="edgeStyle=orthogonalEdgeStyle;rounded=0;orthogonalLoop=1;jettySize=auto;html=1;exitX=0.5;exitY=1;exitDx=0;exitDy=0;entryX=0.5;entryY=0;entryDx=0;entryDy=0;" edge="1" parent="1" source="sl0QNsulNR3IGvjlK8Jg-33" target="sl0QNsulNR3IGvjlK8Jg-35">
          <mxGeometry relative="1" as="geometry" />
        </mxCell>
        <mxCell id="sl0QNsulNR3IGvjlK8Jg-33" value="" style="rounded=1;whiteSpace=wrap;html=1;" vertex="1" parent="1">
          <mxGeometry x="530" y="40" width="120" height="60" as="geometry" />
        </mxCell>
        <mxCell id="sl0QNsulNR3IGvjlK8Jg-34" value="Start" style="text;html=1;align=center;verticalAlign=middle;whiteSpace=wrap;rounded=0;" vertex="1" parent="1">
          <mxGeometry x="560" y="55" width="60" height="30" as="geometry" />
        </mxCell>
        <mxCell id="sl0QNsulNR3IGvjlK8Jg-35" value="" style="rhombus;whiteSpace=wrap;html=1;" vertex="1" parent="1">
          <mxGeometry x="530" y="140" width="120" height="80" as="geometry" />
        </mxCell>
        <mxCell id="sl0QNsulNR3IGvjlK8Jg-36" value="n&amp;lt;=1?" style="text;html=1;align=center;verticalAlign=middle;whiteSpace=wrap;rounded=0;" vertex="1" parent="1">
          <mxGeometry x="560" y="165" width="60" height="30" as="geometry" />
        </mxCell>
        <mxCell id="sl0QNsulNR3IGvjlK8Jg-37" value="" style="endArrow=none;html=1;rounded=0;exitX=1;exitY=0.5;exitDx=0;exitDy=0;" edge="1" parent="1" source="sl0QNsulNR3IGvjlK8Jg-35">
          <mxGeometry width="50" height="50" relative="1" as="geometry">
            <mxPoint x="760" y="270" as="sourcePoint" />
            <mxPoint x="720" y="180" as="targetPoint" />
          </mxGeometry>
        </mxCell>
        <mxCell id="sl0QNsulNR3IGvjlK8Jg-38" value="True" style="text;html=1;align=center;verticalAlign=middle;whiteSpace=wrap;rounded=0;" vertex="1" parent="1">
          <mxGeometry x="650" y="150" width="60" height="30" as="geometry" />
        </mxCell>
        <mxCell id="sl0QNsulNR3IGvjlK8Jg-39" value="" style="endArrow=none;html=1;rounded=0;" edge="1" parent="1">
          <mxGeometry width="50" height="50" relative="1" as="geometry">
            <mxPoint x="470" y="180" as="sourcePoint" />
            <mxPoint x="530" y="180" as="targetPoint" />
          </mxGeometry>
        </mxCell>
        <mxCell id="sl0QNsulNR3IGvjlK8Jg-40" value="False" style="text;html=1;align=center;verticalAlign=middle;whiteSpace=wrap;rounded=0;" vertex="1" parent="1">
          <mxGeometry x="470" y="150" width="60" height="30" as="geometry" />
        </mxCell>
        <mxCell id="sl0QNsulNR3IGvjlK8Jg-42" value="" style="endArrow=none;html=1;rounded=0;exitX=1;exitY=0.5;exitDx=0;exitDy=0;entryX=1;entryY=0;entryDx=0;entryDy=0;" edge="1" parent="1" source="sl0QNsulNR3IGvjlK8Jg-43" target="sl0QNsulNR3IGvjlK8Jg-45">
          <mxGeometry width="50" height="50" relative="1" as="geometry">
            <mxPoint x="620" y="490" as="sourcePoint" />
            <mxPoint x="720" y="540" as="targetPoint" />
          </mxGeometry>
        </mxCell>
        <mxCell id="sl0QNsulNR3IGvjlK8Jg-43" value="" style="rounded=1;whiteSpace=wrap;html=1;" vertex="1" parent="1">
          <mxGeometry x="530" y="565" width="120" height="60" as="geometry" />
        </mxCell>
        <mxCell id="sl0QNsulNR3IGvjlK8Jg-44" value="End" style="text;html=1;align=center;verticalAlign=middle;whiteSpace=wrap;rounded=0;" vertex="1" parent="1">
          <mxGeometry x="560" y="580" width="60" height="30" as="geometry" />
        </mxCell>
        <mxCell id="sl0QNsulNR3IGvjlK8Jg-45" value="return n" style="text;html=1;align=center;verticalAlign=middle;whiteSpace=wrap;rounded=0;" vertex="1" parent="1">
          <mxGeometry x="660" y="595" width="60" height="30" as="geometry" />
        </mxCell>
        <mxCell id="sl0QNsulNR3IGvjlK8Jg-56" value="" style="endArrow=none;html=1;rounded=0;exitX=1;exitY=0;exitDx=0;exitDy=0;" edge="1" parent="1" source="sl0QNsulNR3IGvjlK8Jg-45">
          <mxGeometry width="50" height="50" relative="1" as="geometry">
            <mxPoint x="670" y="230" as="sourcePoint" />
            <mxPoint x="720" y="180" as="targetPoint" />
          </mxGeometry>
        </mxCell>
        <mxCell id="sl0QNsulNR3IGvjlK8Jg-66" style="edgeStyle=orthogonalEdgeStyle;rounded=0;orthogonalLoop=1;jettySize=auto;html=1;exitX=0.5;exitY=1;exitDx=0;exitDy=0;entryX=0.5;entryY=0;entryDx=0;entryDy=0;" edge="1" parent="1" source="sl0QNsulNR3IGvjlK8Jg-58" target="sl0QNsulNR3IGvjlK8Jg-43">
          <mxGeometry relative="1" as="geometry" />
        </mxCell>
        <mxCell id="sl0QNsulNR3IGvjlK8Jg-58" value="" style="rounded=0;whiteSpace=wrap;html=1;" vertex="1" parent="1">
          <mxGeometry x="485" y="305" width="210" height="130" as="geometry" />
        </mxCell>
        <mxCell id="sl0QNsulNR3IGvjlK8Jg-59" value="return&lt;div&gt;recursiveFibonacci(n &lt;span class=&quot;hljs-operator&quot;&gt;-&lt;/span&gt; &lt;span class=&quot;hljs-number&quot;&gt;1&lt;/span&gt;) &lt;span class=&quot;hljs-operator&quot;&gt;+&lt;/span&gt; recursiveFibonacci(n &lt;span class=&quot;hljs-operator&quot;&gt;-&lt;/span&gt; &lt;span class=&quot;hljs-number&quot;&gt;2&lt;/span&gt;)&lt;br&gt;&lt;/div&gt;" style="text;html=1;align=center;verticalAlign=middle;whiteSpace=wrap;rounded=0;" vertex="1" parent="1">
          <mxGeometry x="500" y="320" width="180" height="100" as="geometry" />
        </mxCell>
        <mxCell id="sl0QNsulNR3IGvjlK8Jg-63" value="" style="endArrow=none;html=1;rounded=0;entryX=0;entryY=1;entryDx=0;entryDy=0;" edge="1" parent="1" target="sl0QNsulNR3IGvjlK8Jg-40">
          <mxGeometry width="50" height="50" relative="1" as="geometry">
            <mxPoint x="470" y="380" as="sourcePoint" />
            <mxPoint x="450" y="280" as="targetPoint" />
          </mxGeometry>
        </mxCell>
        <mxCell id="sl0QNsulNR3IGvjlK8Jg-65" value="" style="endArrow=classic;html=1;rounded=0;entryX=0.024;entryY=0.577;entryDx=0;entryDy=0;entryPerimeter=0;" edge="1" parent="1" target="sl0QNsulNR3IGvjlK8Jg-58">
          <mxGeometry width="50" height="50" relative="1" as="geometry">
            <mxPoint x="470" y="380" as="sourcePoint" />
            <mxPoint x="440" y="360" as="targetPoint" />
          </mxGeometry>
        </mxCell>
        <mxCell id="sl0QNsulNR3IGvjlK8Jg-67" value="&lt;div style=&quot;background-color:#1e1f22;color:#bcbec4&quot;&gt;&lt;pre style=&quot;font-family:&#39;JetBrains Mono&#39;,monospace;font-size:9,8pt;&quot;&gt;&lt;span style=&quot;color:#56a8f5;&quot;&gt;recursiveFibonacci&lt;/span&gt;(&lt;span style=&quot;color:#cf8e6d;&quot;&gt;int &lt;/span&gt;n)&lt;/pre&gt;&lt;/div&gt;" style="text;html=1;align=center;verticalAlign=middle;whiteSpace=wrap;rounded=0;" vertex="1" parent="1">
          <mxGeometry x="560" y="10" width="60" height="30" as="geometry" />
        </mxCell>
        <mxCell id="sl0QNsulNR3IGvjlK8Jg-76" style="edgeStyle=orthogonalEdgeStyle;rounded=0;orthogonalLoop=1;jettySize=auto;html=1;exitX=0.5;exitY=1;exitDx=0;exitDy=0;entryX=0.5;entryY=0;entryDx=0;entryDy=0;" edge="1" parent="1" source="sl0QNsulNR3IGvjlK8Jg-77" target="sl0QNsulNR3IGvjlK8Jg-79">
          <mxGeometry relative="1" as="geometry" />
        </mxCell>
        <mxCell id="sl0QNsulNR3IGvjlK8Jg-77" value="" style="rounded=1;whiteSpace=wrap;html=1;" vertex="1" parent="1">
          <mxGeometry x="1200" y="50" width="120" height="60" as="geometry" />
        </mxCell>
        <mxCell id="sl0QNsulNR3IGvjlK8Jg-78" value="Start" style="text;html=1;align=center;verticalAlign=middle;whiteSpace=wrap;rounded=0;" vertex="1" parent="1">
          <mxGeometry x="1230" y="65" width="60" height="30" as="geometry" />
        </mxCell>
        <mxCell id="sl0QNsulNR3IGvjlK8Jg-79" value="" style="rhombus;whiteSpace=wrap;html=1;" vertex="1" parent="1">
          <mxGeometry x="1200" y="150" width="120" height="80" as="geometry" />
        </mxCell>
        <mxCell id="sl0QNsulNR3IGvjlK8Jg-80" value="n&amp;lt;=1?" style="text;html=1;align=center;verticalAlign=middle;whiteSpace=wrap;rounded=0;" vertex="1" parent="1">
          <mxGeometry x="1230" y="175" width="60" height="30" as="geometry" />
        </mxCell>
        <mxCell id="sl0QNsulNR3IGvjlK8Jg-81" value="" style="endArrow=none;html=1;rounded=0;exitX=1;exitY=0.5;exitDx=0;exitDy=0;" edge="1" parent="1" source="sl0QNsulNR3IGvjlK8Jg-79">
          <mxGeometry width="50" height="50" relative="1" as="geometry">
            <mxPoint x="1430" y="280" as="sourcePoint" />
            <mxPoint x="1390" y="190" as="targetPoint" />
          </mxGeometry>
        </mxCell>
        <mxCell id="sl0QNsulNR3IGvjlK8Jg-82" value="True" style="text;html=1;align=center;verticalAlign=middle;whiteSpace=wrap;rounded=0;" vertex="1" parent="1">
          <mxGeometry x="1320" y="160" width="60" height="30" as="geometry" />
        </mxCell>
        <mxCell id="sl0QNsulNR3IGvjlK8Jg-83" value="" style="endArrow=none;html=1;rounded=0;" edge="1" parent="1">
          <mxGeometry width="50" height="50" relative="1" as="geometry">
            <mxPoint x="1140" y="190" as="sourcePoint" />
            <mxPoint x="1200" y="190" as="targetPoint" />
          </mxGeometry>
        </mxCell>
        <mxCell id="sl0QNsulNR3IGvjlK8Jg-84" value="False" style="text;html=1;align=center;verticalAlign=middle;whiteSpace=wrap;rounded=0;" vertex="1" parent="1">
          <mxGeometry x="1140" y="160" width="60" height="30" as="geometry" />
        </mxCell>
        <mxCell id="sl0QNsulNR3IGvjlK8Jg-85" value="" style="endArrow=none;html=1;rounded=0;exitX=1;exitY=0.5;exitDx=0;exitDy=0;entryX=1;entryY=0;entryDx=0;entryDy=0;" edge="1" parent="1" source="sl0QNsulNR3IGvjlK8Jg-86" target="sl0QNsulNR3IGvjlK8Jg-88">
          <mxGeometry width="50" height="50" relative="1" as="geometry">
            <mxPoint x="1293" y="500" as="sourcePoint" />
            <mxPoint x="1393" y="550" as="targetPoint" />
          </mxGeometry>
        </mxCell>
        <mxCell id="sl0QNsulNR3IGvjlK8Jg-86" value="" style="rounded=1;whiteSpace=wrap;html=1;" vertex="1" parent="1">
          <mxGeometry x="1203" y="575" width="120" height="60" as="geometry" />
        </mxCell>
        <mxCell id="sl0QNsulNR3IGvjlK8Jg-87" value="End" style="text;html=1;align=center;verticalAlign=middle;whiteSpace=wrap;rounded=0;" vertex="1" parent="1">
          <mxGeometry x="1233" y="590" width="60" height="30" as="geometry" />
        </mxCell>
        <mxCell id="sl0QNsulNR3IGvjlK8Jg-88" value="return n" style="text;html=1;align=center;verticalAlign=middle;whiteSpace=wrap;rounded=0;" vertex="1" parent="1">
          <mxGeometry x="1333" y="605" width="60" height="30" as="geometry" />
        </mxCell>
        <mxCell id="sl0QNsulNR3IGvjlK8Jg-92" value="" style="endArrow=none;html=1;rounded=0;entryX=0;entryY=1;entryDx=0;entryDy=0;" edge="1" parent="1" target="sl0QNsulNR3IGvjlK8Jg-84">
          <mxGeometry width="50" height="50" relative="1" as="geometry">
            <mxPoint x="1140" y="280" as="sourcePoint" />
            <mxPoint x="1140" y="190" as="targetPoint" />
          </mxGeometry>
        </mxCell>
        <mxCell id="sl0QNsulNR3IGvjlK8Jg-94" value="" style="rhombus;whiteSpace=wrap;html=1;" vertex="1" parent="1">
          <mxGeometry x="1080" y="280" width="120" height="80" as="geometry" />
        </mxCell>
        <mxCell id="sl0QNsulNR3IGvjlK8Jg-95" value="n in fibonacciMap?" style="text;html=1;align=center;verticalAlign=middle;whiteSpace=wrap;rounded=0;" vertex="1" parent="1">
          <mxGeometry x="1110" y="305" width="60" height="30" as="geometry" />
        </mxCell>
        <mxCell id="sl0QNsulNR3IGvjlK8Jg-101" value="" style="endArrow=none;html=1;rounded=0;exitX=1;exitY=0;exitDx=0;exitDy=0;" edge="1" parent="1" source="sl0QNsulNR3IGvjlK8Jg-88">
          <mxGeometry width="50" height="50" relative="1" as="geometry">
            <mxPoint x="1200" y="450" as="sourcePoint" />
            <mxPoint x="1390" y="190" as="targetPoint" />
          </mxGeometry>
        </mxCell>
        <mxCell id="sl0QNsulNR3IGvjlK8Jg-102" value="" style="endArrow=none;html=1;rounded=0;exitX=1;exitY=0.5;exitDx=0;exitDy=0;" edge="1" parent="1" source="sl0QNsulNR3IGvjlK8Jg-94">
          <mxGeometry width="50" height="50" relative="1" as="geometry">
            <mxPoint x="1200" y="450" as="sourcePoint" />
            <mxPoint x="1270" y="320" as="targetPoint" />
          </mxGeometry>
        </mxCell>
        <mxCell id="sl0QNsulNR3IGvjlK8Jg-106" style="edgeStyle=orthogonalEdgeStyle;rounded=0;orthogonalLoop=1;jettySize=auto;html=1;exitX=0.5;exitY=1;exitDx=0;exitDy=0;entryX=0.5;entryY=0;entryDx=0;entryDy=0;" edge="1" parent="1" source="sl0QNsulNR3IGvjlK8Jg-103" target="sl0QNsulNR3IGvjlK8Jg-86">
          <mxGeometry relative="1" as="geometry" />
        </mxCell>
        <mxCell id="sl0QNsulNR3IGvjlK8Jg-103" value="" style="rounded=0;whiteSpace=wrap;html=1;" vertex="1" parent="1">
          <mxGeometry x="1203" y="420" width="120" height="60" as="geometry" />
        </mxCell>
        <mxCell id="sl0QNsulNR3IGvjlK8Jg-104" value="return&lt;div&gt;fibonacciMap.get(n)&lt;br&gt;&lt;/div&gt;" style="text;html=1;align=center;verticalAlign=middle;whiteSpace=wrap;rounded=0;" vertex="1" parent="1">
          <mxGeometry x="1233" y="435" width="60" height="30" as="geometry" />
        </mxCell>
        <mxCell id="sl0QNsulNR3IGvjlK8Jg-105" value="" style="endArrow=classic;html=1;rounded=0;entryX=0.5;entryY=0;entryDx=0;entryDy=0;" edge="1" parent="1" target="sl0QNsulNR3IGvjlK8Jg-103">
          <mxGeometry width="50" height="50" relative="1" as="geometry">
            <mxPoint x="1263" y="320" as="sourcePoint" />
            <mxPoint x="1250" y="400" as="targetPoint" />
          </mxGeometry>
        </mxCell>
        <mxCell id="sl0QNsulNR3IGvjlK8Jg-107" value="" style="endArrow=none;html=1;rounded=0;entryX=0;entryY=0.5;entryDx=0;entryDy=0;" edge="1" parent="1" target="sl0QNsulNR3IGvjlK8Jg-94">
          <mxGeometry width="50" height="50" relative="1" as="geometry">
            <mxPoint x="1010" y="320" as="sourcePoint" />
            <mxPoint x="1250" y="400" as="targetPoint" />
          </mxGeometry>
        </mxCell>
        <mxCell id="sl0QNsulNR3IGvjlK8Jg-108" value="True" style="text;html=1;align=center;verticalAlign=middle;whiteSpace=wrap;rounded=0;" vertex="1" parent="1">
          <mxGeometry x="1200" y="280" width="60" height="30" as="geometry" />
        </mxCell>
        <mxCell id="sl0QNsulNR3IGvjlK8Jg-109" value="False" style="text;html=1;align=center;verticalAlign=middle;whiteSpace=wrap;rounded=0;" vertex="1" parent="1">
          <mxGeometry x="1020" y="290" width="60" height="30" as="geometry" />
        </mxCell>
        <mxCell id="sl0QNsulNR3IGvjlK8Jg-117" style="edgeStyle=orthogonalEdgeStyle;rounded=0;orthogonalLoop=1;jettySize=auto;html=1;exitX=0.5;exitY=1;exitDx=0;exitDy=0;entryX=0.5;entryY=0;entryDx=0;entryDy=0;" edge="1" parent="1" source="sl0QNsulNR3IGvjlK8Jg-110" target="sl0QNsulNR3IGvjlK8Jg-114">
          <mxGeometry relative="1" as="geometry" />
        </mxCell>
        <mxCell id="sl0QNsulNR3IGvjlK8Jg-110" value="" style="rounded=0;whiteSpace=wrap;html=1;" vertex="1" parent="1">
          <mxGeometry x="950" y="375" width="120" height="60" as="geometry" />
        </mxCell>
        <mxCell id="sl0QNsulNR3IGvjlK8Jg-111" value="fib = fibonacciDP(n&lt;span class=&quot;hljs-number&quot;&gt;-1&lt;/span&gt;) &lt;span class=&quot;hljs-operator&quot;&gt;+&lt;/span&gt;fibonacciDP(n&lt;span class=&quot;hljs-number&quot;&gt;-2&lt;/span&gt;)" style="text;html=1;align=center;verticalAlign=middle;whiteSpace=wrap;rounded=0;" vertex="1" parent="1">
          <mxGeometry x="980" y="390" width="60" height="30" as="geometry" />
        </mxCell>
        <mxCell id="sl0QNsulNR3IGvjlK8Jg-113" value="" style="endArrow=classic;html=1;rounded=0;entryX=0.5;entryY=0;entryDx=0;entryDy=0;" edge="1" parent="1" target="sl0QNsulNR3IGvjlK8Jg-110">
          <mxGeometry width="50" height="50" relative="1" as="geometry">
            <mxPoint x="1010" y="320" as="sourcePoint" />
            <mxPoint x="1080" y="470" as="targetPoint" />
          </mxGeometry>
        </mxCell>
        <mxCell id="sl0QNsulNR3IGvjlK8Jg-121" style="edgeStyle=orthogonalEdgeStyle;rounded=0;orthogonalLoop=1;jettySize=auto;html=1;exitX=0.5;exitY=1;exitDx=0;exitDy=0;entryX=0.5;entryY=0;entryDx=0;entryDy=0;" edge="1" parent="1" source="sl0QNsulNR3IGvjlK8Jg-114" target="sl0QNsulNR3IGvjlK8Jg-118">
          <mxGeometry relative="1" as="geometry" />
        </mxCell>
        <mxCell id="sl0QNsulNR3IGvjlK8Jg-114" value="" style="rounded=0;whiteSpace=wrap;html=1;" vertex="1" parent="1">
          <mxGeometry x="950" y="470" width="120" height="60" as="geometry" />
        </mxCell>
        <mxCell id="sl0QNsulNR3IGvjlK8Jg-115" value="fibonacciMap.put(n, fib" style="text;html=1;align=center;verticalAlign=middle;whiteSpace=wrap;rounded=0;" vertex="1" parent="1">
          <mxGeometry x="980" y="485" width="60" height="30" as="geometry" />
        </mxCell>
        <mxCell id="sl0QNsulNR3IGvjlK8Jg-122" style="edgeStyle=orthogonalEdgeStyle;rounded=0;orthogonalLoop=1;jettySize=auto;html=1;exitX=1;exitY=0.5;exitDx=0;exitDy=0;entryX=0;entryY=0.5;entryDx=0;entryDy=0;" edge="1" parent="1" source="sl0QNsulNR3IGvjlK8Jg-118" target="sl0QNsulNR3IGvjlK8Jg-86">
          <mxGeometry relative="1" as="geometry" />
        </mxCell>
        <mxCell id="sl0QNsulNR3IGvjlK8Jg-118" value="" style="rounded=0;whiteSpace=wrap;html=1;" vertex="1" parent="1">
          <mxGeometry x="950" y="575" width="120" height="60" as="geometry" />
        </mxCell>
        <mxCell id="sl0QNsulNR3IGvjlK8Jg-119" value="return fib" style="text;html=1;align=center;verticalAlign=middle;whiteSpace=wrap;rounded=0;" vertex="1" parent="1">
          <mxGeometry x="980" y="590" width="60" height="30" as="geometry" />
        </mxCell>
        <mxCell id="sl0QNsulNR3IGvjlK8Jg-123" value="&lt;div style=&quot;background-color:#1e1f22;color:#bcbec4&quot;&gt;&lt;pre style=&quot;font-family:&#39;JetBrains Mono&#39;,monospace;font-size:9,8pt;&quot;&gt;&lt;span style=&quot;color:#56a8f5;&quot;&gt;fibonacciDP&lt;/span&gt;(&lt;span style=&quot;color:#cf8e6d;&quot;&gt;int &lt;/span&gt;n)&lt;/pre&gt;&lt;/div&gt;" style="text;html=1;align=center;verticalAlign=middle;whiteSpace=wrap;rounded=0;" vertex="1" parent="1">
          <mxGeometry x="1230" y="20" width="60" height="30" as="geometry" />
        </mxCell>
      </root>
    </mxGraphModel>
  </diagram>
</mxfile>
